<svg width="60" height="60" viewBox="0 0 60 60" fill="none" xmlns="http://www.w3.org/2000/svg">
<path d="M30 0.0605469C46.535 0.0605469 59.9395 13.465 59.9395 30C59.9394 46.535 46.535 59.9395 30 59.9395C13.465 59.9394 0.0605551 46.535 0.0605469 30C0.0605469 13.465 13.465 0.0605551 30 0.0605469Z" fill="#FF5636" stroke="white" stroke-width="0.121354"/>
<path d="M22 15.2801C24.4345 15.4358 26.7126 16.5371 28.3457 18.3504V18.3514L29.6543 19.8748L29.7002 19.9285L29.7461 19.8748L31.0527 18.3543C32.708 16.6277 34.9623 15.6021 37.3506 15.4881C39.739 15.3742 42.0806 16.1807 43.8926 17.742C45.7044 19.3033 46.8487 21.5003 47.0908 23.8807C47.3329 26.2611 46.6538 28.6434 45.1934 30.5379L30.6533 47.4754C30.5296 47.62 30.3757 47.7362 30.2031 47.8162C30.0563 47.8842 29.8982 47.9232 29.7373 47.9344L29.7295 47.9002C29.5375 47.9007 29.3473 47.8602 29.1729 47.7801C28.9984 47.7 28.8436 47.5822 28.7188 47.4363L14.1758 30.5359C12.6299 28.6473 11.8841 26.2278 12.0967 23.7957C12.3094 21.3634 13.464 19.1107 15.3145 17.5193C17.1652 15.928 19.5649 15.1244 22 15.2801ZM21.1406 17.7586C19.9125 17.7854 18.7143 18.1506 17.6787 18.8152C16.6027 19.5059 15.7473 20.4907 15.2139 21.6531C14.6804 22.8157 14.4911 24.107 14.6689 25.3738C14.8468 26.6407 15.3839 27.8301 16.2168 28.8006L29.6836 44.4793L29.7295 44.532L29.7754 44.4793L43.2422 28.8006L43.2432 28.7986C44.3285 27.4437 44.8461 25.7201 44.6855 23.991C44.525 22.2619 43.6991 20.6628 42.3828 19.5311C41.0667 18.3996 39.363 17.8241 37.6309 17.9256C35.8984 18.0272 34.2728 18.7982 33.0977 20.076L33.0967 20.077L30.7324 22.8309C30.6038 22.9696 30.4477 23.0804 30.2744 23.1561C30.1011 23.2318 29.9137 23.2703 29.7246 23.2703C29.5355 23.2703 29.3481 23.2317 29.1748 23.1561C29.0017 23.0804 28.8463 22.9694 28.7178 22.8309H28.7168L26.3535 20.077C25.7252 19.3449 24.9459 18.7575 24.0693 18.3553C23.1929 17.9531 22.2396 17.7457 21.2754 17.7469H21.1289L21.1406 17.7586Z" fill="white" stroke="white" stroke-width="0.121354"/>
</svg>
